<?xml version="1.0" encoding="utf-8"?>
<!-- Generator: Adobe Illustrator 19.1.0, SVG Export Plug-In . SVG Version: 6.00 Build 0)  -->
<svg version="1.1" id="Layer_1" xmlns="http://www.w3.org/2000/svg" xmlns:xlink="http://www.w3.org/1999/xlink" x="0px" y="0px"
	 viewBox="0 0 106 10.8" style="enable-background:new 0 0 106 10.8;" xml:space="preserve">
<style type="text/css">
	.st0{fill:#FFFFFF;}
</style>
<path class="st0" d="M0,10.8h14.2L21,5.7h74.2l-2.5,4.7L106,5.3L92.7,0l2.7,4.5H20.9L14.2,0L0,0l4.8,5L0,10.8z M15.4,5.7l-3.4,4
	h-1.8l3.3-4H15.4z M13.3,4.6l-3.1-3.4H12l3.2,3.4H13.3z M11.8,4.6h-2v0.3L6.6,1.1h1.9L11.8,4.6z M11.9,5.7l-3.4,4h-2L9.8,6V5.7H11.9
	z M13.7,9.7h-0.1l3.3-4h2.3L13.7,9.7z M18.9,4.6h-2.2l-3.1-3.4h0L18.9,4.6z M2.3,1.1h2.6L8.8,5L4.9,9.7H2.3L6.3,5L2.3,1.1z"/>
</svg>
