<?xml version="1.0" encoding="utf-8"?>
<!-- Generator: Adobe Illustrator 19.1.0, SVG Export Plug-In . SVG Version: 6.00 Build 0)  -->
<svg version="1.1" id="Layer_1" xmlns="http://www.w3.org/2000/svg" xmlns:xlink="http://www.w3.org/1999/xlink" x="0px" y="0px"
	 viewBox="0 0 151.5 137.9" style="enable-background:new 0 0 151.5 137.9;" xml:space="preserve">
<style type="text/css">
	.st0{fill:#363636;}
	.st1{fill:#FAFAFA;}
</style>
<g>
	<g>
		<g>
			<g>
				<polygon class="st0" points="138.1,78.9 140.2,75.7 144.5,69 140.2,62.3 138.1,59.1 139.1,55.4 141.1,47.7 135,42.6 132,40.2 
					131.8,36.4 131.3,28.4 123.9,25.6 120.3,24.2 119,20.6 116.1,13.2 108.1,12.7 104.3,12.5 101.9,9.6 96.9,3.4 89.2,5.4 85.5,6.4 
					82.2,4.3 75.6,0 68.9,4.3 65.6,6.4 61.9,5.4 54.2,3.4 49.2,9.6 46.8,12.5 43,12.7 35,13.2 32.1,20.6 30.8,24.2 27.2,25.6 
					19.8,28.4 19.3,36.4 19.1,40.2 16.1,42.6 10,47.7 12,55.4 13,59.1 10.9,62.3 6.6,69 10.9,75.7 13,78.9 12,82.6 10,90.3 
					16.1,95.3 19.1,97.7 19.3,101.6 19.8,109.5 27.2,112.4 30.8,113.8 32.1,117.3 35,124.8 43,125.2 46.8,125.4 49.2,128.4 
					54.2,134.6 61.9,132.5 65.6,131.5 68.9,133.6 75.6,137.9 82.2,133.6 85.5,131.5 89.2,132.5 96.9,134.6 101.9,128.4 104.3,125.4 
					108.1,125.2 116.1,124.8 119,117.3 120.3,113.8 123.9,112.4 131.4,109.5 131.8,101.6 132,97.7 135,95.3 141.1,90.3 139.1,82.6 
									"/>
			</g>
		</g>
		<g>
			<g>
				<rect x="0.9" y="47.4" class="st1" width="149.4" height="43.5"/>
			</g>
			<g>
				<path class="st0" d="M151.1,91.8H0V46.5h151.1V91.8z M1.7,90h147.6V48.2H1.7V90z"/>
			</g>
		</g>
		<g>
			<g>
				<g>
					<path class="st1" d="M61,35.9c0.2,0.3,0.1,0.7-0.2,0.9L58.9,38c-0.3,0.2-0.7,0.1-0.9-0.2s-0.1-0.7,0.2-0.9l0.4-0.2l-2.7-4.3
						l-0.3,3.2c0,0.4-0.5,0.7-0.9,0.6L51.4,35l2.7,4.4l0.4-0.2c0.3-0.2,0.7-0.1,0.9,0.2c0.2,0.3,0.1,0.7-0.2,0.9l-1.9,1.2
						c-0.3,0.2-0.7,0.1-0.9-0.2c-0.2-0.3-0.1-0.7,0.2-0.9l0.4-0.2l-3.3-5.4L49.3,35c-0.3,0.2-0.7,0.1-0.9-0.2
						c-0.2-0.3-0.1-0.7,0.2-0.9l0.9-0.6c0.2-0.1,0.4-0.1,0.5-0.1l4.3,1.4l0.4-4.3c0-0.2,0.1-0.4,0.3-0.5l1-0.6
						c0.3-0.2,0.7-0.1,0.9,0.2c0.2,0.3,0.1,0.7-0.2,0.9l-0.4,0.3l3.3,5.4l0.4-0.3C60.4,35.5,60.8,35.6,61,35.9z"/>
				</g>
			</g>
			<g>
				<g>
					<path class="st1" d="M67.8,25.2c6.2-1.1,7.9,8.4,1.7,9.5C63.2,35.8,61.6,26.3,67.8,25.2z M69.3,33.4c4.5-0.8,3.3-7.7-1.2-6.9
						C63.5,27.3,64.7,34.2,69.3,33.4z"/>
				</g>
			</g>
			<g>
				<g>
					<path class="st1" d="M87.3,34.8c-0.1,0.4-0.4,0.6-0.7,0.5c-0.8-0.2-1.6-0.3-2.4-0.5c-0.4-0.1-0.6-0.4-0.5-0.7
						c0.1-0.3,0.4-0.6,0.7-0.5l0.1,0l-1.3-2.9l-1.9-0.4l-0.5,2.5l0.6,0.1c0.3,0.1,0.6,0.4,0.5,0.8c-0.1,0.3-0.4,0.6-0.8,0.5
						l-2.4-0.5c-0.3-0.1-0.6-0.4-0.5-0.8c0.1-0.4,0.4-0.6,0.8-0.5l0.6,0.1l0.5-2.5L79.5,30c-0.3-0.1-0.6-0.4-0.5-0.7
						c0.1-0.3,0.4-0.6,0.8-0.5l0.6,0.1l0.5-2.5l-0.6-0.1c-0.3-0.1-0.6-0.4-0.5-0.7c0.1-0.4,0.4-0.6,0.8-0.5l5.1,1
						c3.2,0.6,2.4,5.4-0.8,5l1.3,2.9l0.7,0.1C87.2,34.2,87.4,34.5,87.3,34.8z M84.8,29.8c1.6,0.3,2.1-2.2,0.5-2.5l-3.3-0.7l-0.5,2.5
						L84.8,29.8z"/>
				</g>
			</g>
			<g>
				<g>
					<path class="st1" d="M98.9,40l-0.6,1c-0.1,0.2-0.4,0.3-0.6,0.3c-0.1,0-0.2,0-0.4-0.1l-5.9-3.7c-0.3-0.2-0.4-0.6-0.2-0.9
						c0.2-0.3,0.6-0.4,0.9-0.2l0.5,0.3l1.4-2.2l-0.5-0.3c-0.3-0.2-0.4-0.6-0.2-0.9c0.2-0.3,0.6-0.4,0.9-0.2l0.5,0.3l1.3-2.1L95.5,31
						c-0.3-0.2-0.4-0.6-0.2-0.9c0.2-0.3,0.6-0.4,0.9-0.2l5.7,3.6c0.3,0.2,0.4,0.6,0.2,0.9l-0.7,1.1c-0.2,0.3-0.6,0.4-0.9,0.2
						c-0.3-0.2-0.4-0.6-0.2-0.9l0.4-0.6L97.1,32l-1.3,2.1l2.5,1.5c0.3,0.2,0.4,0.6,0.2,0.9c-0.2,0.3-0.6,0.4-0.9,0.2L95,35.2
						l-1.4,2.2l3.9,2.5l0.3-0.5c0.2-0.3,0.6-0.4,0.9-0.2C99,39.3,99.1,39.7,98.9,40z"/>
				</g>
			</g>
		</g>
		<g>
			<g>
				<g>
					<path class="st1" d="M75.6,120.1c-28.2,0-51.1-22.9-51.1-51.1c0-28.2,22.9-51.1,51.1-51.1c28.2,0,51.1,22.9,51.1,51.1
						C126.7,97.1,103.7,120.1,75.6,120.1z M75.6,19.6c-27.2,0-49.4,22.2-49.4,49.4c0,27.2,22.2,49.4,49.4,49.4
						c27.2,0,49.4-22.2,49.4-49.4C124.9,41.7,102.8,19.6,75.6,19.6z"/>
				</g>
			</g>
		</g>
		<g>
			<g>
				<g>
					<path class="st1" d="M78.7,77.7l-0.5,0.3c0.2,0.4,0.7,1,1.6,1c0.1,0,0.2,0,0.3,0C79.1,78.7,78.7,77.7,78.7,77.7z"/>
				</g>
			</g>
			<g>
				<g>
					<rect x="92.9" y="69.3" class="st1" width="0" height="0.5"/>
				</g>
			</g>
			<g>
				<g>
					<path class="st1" d="M57,74.3c0-0.1,0.1-0.1,0.1-0.2c-0.1,0-0.2,0-0.3,0c-0.1,0-0.2,0-0.2,0.1C56.7,74.2,56.8,74.2,57,74.3z"/>
				</g>
			</g>
			<g>
				<g>
					<path class="st1" d="M114.5,64.1l-2.1,3.7c0.6-0.8,1.2-1.4,1.8-1.9l1-1.8h-3.6l0,0H114.5z"/>
				</g>
			</g>
		</g>
		<g>
			<g>
				<polygon class="st0" points="1,91.7 19.3,97.7 132.1,97.7 151.5,91.7 125.9,89.8 1.7,89.8 				"/>
			</g>
		</g>
		<g>
			<g>
				<path class="st1" d="M44.6,100.7v-0.2v-5c0,0,0-0.1,0-0.2c0-0.1,0-0.2,0.1-0.4c0.1-0.2,0.1-0.4,0.2-0.6c0.1-0.2,0.3-0.3,0.5-0.4
					c0.2-0.1,0.5-0.2,0.8-0.2c0.3,0,0.6,0.1,0.8,0.2c0.2,0.1,0.4,0.3,0.5,0.4c0.1,0.2,0.2,0.4,0.2,0.5c0.1,0.2,0.1,0.3,0.1,0.5
					l0,0.2v1.3h-1.2v-1.4c0-0.1,0-0.1,0-0.2c0-0.1,0-0.2-0.1-0.3c-0.1-0.1-0.2-0.2-0.3-0.2c-0.1,0-0.2,0.1-0.3,0.2
					c-0.1,0.1-0.1,0.2-0.1,0.3l0,0.2v5.2c0,0,0,0.1,0,0.2c0,0.1,0,0.2,0.1,0.3c0.1,0.1,0.1,0.2,0.3,0.2c0.1,0,0.2-0.1,0.3-0.2
					c0.1-0.1,0.1-0.2,0.1-0.3l0-0.2v-1.5H46v-1.1h1.7v4.2H47l-0.1-0.4c-0.3,0.3-0.6,0.5-1,0.5c-0.3,0-0.5-0.1-0.7-0.2
					c-0.2-0.1-0.3-0.3-0.4-0.5c-0.1-0.2-0.1-0.4-0.2-0.5C44.6,101,44.6,100.9,44.6,100.7z"/>
			</g>
			<g>
				<path class="st1" d="M51.1,100.5v-6.7h1.2v6.8c0,0,0,0.1,0,0.2c0,0.1,0,0.2,0.1,0.3c0.1,0.1,0.2,0.2,0.3,0.2
					c0.1,0,0.2-0.1,0.3-0.2c0.1-0.1,0.1-0.2,0.1-0.3l0-0.1v-6.8h1.2v6.7c0,0,0,0.1,0,0.2c0,0.1,0,0.2-0.1,0.4
					c-0.1,0.2-0.1,0.4-0.2,0.6c-0.1,0.2-0.2,0.3-0.5,0.4c-0.2,0.1-0.5,0.2-0.8,0.2c-0.3,0-0.6-0.1-0.8-0.2c-0.2-0.1-0.4-0.3-0.5-0.5
					c-0.1-0.2-0.2-0.4-0.2-0.5c-0.1-0.2-0.1-0.3-0.1-0.5L51.1,100.5z"/>
			</g>
			<g>
				<path class="st1" d="M57.2,102.3l1.2-8.4H60l1.2,8.4h-1.1l-0.2-1.7h-1.2l-0.2,1.7H57.2z M58.8,99.3h0.8l-0.4-2.6l0-0.2h-0.1
					l0,0.2L58.8,99.3z"/>
			</g>
			<g>
				<path class="st1" d="M64.1,102.3v-8.4h1.2c1.4,0,2,0.8,2,2.4c0,1-0.2,1.6-0.6,1.9l0.8,4.1h-1.2l-0.6-3.6h-0.4v3.6H64.1z
					 M65.3,97.6c0.1,0,0.2,0,0.3,0c0.1,0,0.2-0.1,0.3-0.1c0.1-0.1,0.2-0.2,0.3-0.4c0.1-0.2,0.1-0.4,0.1-0.7c0-0.3,0-0.5-0.1-0.7
					c-0.1-0.2-0.1-0.3-0.3-0.4c-0.1-0.1-0.2-0.1-0.3-0.1c-0.1,0-0.2,0-0.3,0V97.6z"/>
			</g>
			<g>
				<path class="st1" d="M70.2,102.3l1.2-8.4H73l1.2,8.4H73l-0.2-1.7h-1.2l-0.2,1.7H70.2z M71.8,99.3h0.8l-0.4-2.6l0-0.2h-0.1l0,0.2
					L71.8,99.3z"/>
			</g>
			<g>
				<path class="st1" d="M77.1,102.3v-8.4h1.1l1.2,4.4l0.1,0.4h0.1v-0.4v-4.4h1.2v8.4h-1.1l-1.2-4.4l-0.1-0.4h-0.1v0.4v4.4H77.1z"/>
			</g>
			<g>
				<path class="st1" d="M83.4,95.1v-1.3H87v1.3h-1.2v7.1h-1.2v-7.1H83.4z"/>
			</g>
			<g>
				<path class="st1" d="M89.8,102.3v-8.4h2.8v1.3H91v2.2h1.2v1.4H91v2.3h1.7v1.3H89.8z"/>
			</g>
			<g>
				<path class="st1" d="M95.6,102.3v-8.4h2.8v1.3h-1.7v2.2H98v1.4h-1.2v2.3h1.7v1.3H95.6z"/>
			</g>
			<g>
				<path class="st1" d="M101.4,102.3v-8.4h0.9c0.3,0,0.6,0,0.8,0.1c0.2,0,0.4,0.1,0.6,0.2c0.2,0.1,0.3,0.2,0.4,0.4
					c0.1,0.2,0.2,0.4,0.3,0.5c0.1,0.2,0.1,0.4,0.2,0.8c0,0.3,0.1,0.7,0.1,1c0,0.3,0,0.7,0,1.3c0,0.5,0,1,0,1.3c0,0.3,0,0.6-0.1,1
					c0,0.3-0.1,0.6-0.2,0.8c-0.1,0.2-0.2,0.4-0.3,0.5c-0.1,0.2-0.3,0.3-0.4,0.4c-0.2,0.1-0.4,0.1-0.6,0.2c-0.2,0-0.5,0.1-0.8,0.1
					H101.4z M102.5,101c0.4,0,0.6-0.1,0.7-0.2c0.1-0.2,0.2-0.8,0.2-1.8v-1c0-0.1,0-0.2,0-0.3c0-1.2,0-2-0.1-2.2
					c-0.1-0.2-0.3-0.4-0.5-0.4c-0.1,0-0.2,0-0.3,0V101z"/>
			</g>
		</g>
		<g>
			<g>
				
					<rect x="107.4" y="96.7" transform="matrix(0.7079 0.7063 -0.7063 0.7079 100.7002 -48.0293)" class="st1" width="2" height="2"/>
			</g>
		</g>
		<g>
			<g>
				
					<rect x="39.5" y="96.7" transform="matrix(0.7079 0.7063 -0.7063 0.7079 80.8458 -2.155229e-02)" class="st1" width="2" height="2"/>
			</g>
		</g>
	</g>
	<g>
		<path class="st0" d="M28.6,77.5c0,0.6-0.5,1.2-1.2,1.2h-4.3c-0.6,0-1.2-0.5-1.2-1.2c0-0.7,0.5-1.2,1.2-1.2h0.5l-1.3-2.8h-6.7
			l-1.3,2.8h0.5c0.6,0,1.2,0.5,1.2,1.2c0,0.6-0.5,1.2-1.2,1.2h-4.3c-0.7,0-1.2-0.5-1.2-1.2c0-0.7,0.5-1.2,1.2-1.2h1.1l1.3-2.8h-0.1
			c-0.7,0-1.2-0.5-1.2-1.2c0-0.6,0.5-1.2,1.2-1.2h1.2l3-6.8h-0.3c-0.7,0-1.2-0.5-1.2-1.2c0-0.6,0.5-1.2,1.2-1.2h4.3
			c0.7,0,1.2,0.5,1.2,1.2c0,0.7-0.5,1.2-1.2,1.2h-0.3l3,6.8h1.2c0.7,0,1.2,0.5,1.2,1.2c0,0.7-0.5,1.2-1.2,1.2H25l1.3,2.8h1.1
			C28.1,76.2,28.6,76.8,28.6,77.5z M21.3,71.1L19,65.9l-2.3,5.2H21.3z"/>
		<path class="st0" d="M49.9,63.2c0,0.7-0.5,1.2-1.2,1.2h-1L43.8,78c-0.4,1.2-2,1.2-2.3,0l-3-10.2l-3,10.2c-0.4,1.2-1.9,1.3-2.3,0
			l-4.1-13.5H28c-0.7,0-1.2-0.5-1.2-1.2c0-0.7,0.5-1.2,1.2-1.2c1.4,0,2.8,0,4.1,0c0.7,0,1.2,0.5,1.2,1.2c0,0.7-0.5,1.2-1.2,1.2h-0.5
			l2.7,9l3-10.3c0.4-1.2,1.9-1.2,2.3,0l3,10.2l2.6-8.9h-0.7c-0.7,0-1.2-0.5-1.2-1.2c0-0.7,0.5-1.2,1.2-1.2c1.4,0,2.8,0,4.1,0
			C49.4,62,49.9,62.6,49.9,63.2z"/>
		<path class="st0" d="M66.7,75.1v2.3c0,0.5-0.3,0.9-0.6,1.1c-0.2,0.1-0.4,0.2-0.7,0.2H52.3c-0.7,0-1.2-0.5-1.2-1.2
			c0-0.6,0.5-1.2,1.2-1.2h1.1v-4.8h-1.1c-0.7,0-1.2-0.5-1.2-1.2c0-0.6,0.5-1.2,1.2-1.2h1.1v-4.7h-1.1c-0.7,0-1.2-0.5-1.2-1.2
			c0-0.7,0.5-1.2,1.2-1.2h12.6c0.6,0,1.2,0.5,1.2,1.2v2.5c0,0.7-0.5,1.2-1.2,1.2c-0.7,0-1.2-0.5-1.2-1.2v-1.3h-8v4.7h5.4
			c0.6,0,1.2,0.5,1.2,1.2c0,0.7-0.5,1.2-1.2,1.2h-5.4v4.8h8.6v-1.1c0-0.7,0.5-1.2,1.2-1.2C66.2,73.9,66.7,74.5,66.7,75.1z"/>
		<path class="st0" d="M80.9,78.6h-7.5c-2.8,0-4.9-1.9-4.9-4.5c0-0.7,0.5-1.2,1.2-1.2c0.6,0,1.2,0.5,1.2,1.2c0,1.4,1.3,2.1,2.5,2.1
			h7.5c3.1,0,3.1-4.7,0-4.7c-2.5,0-4.9,0-7.4,0c-6.2,0-6.2-9.5,0-9.5h6c0.9,0,1.8,0.2,2.4,0.5c0.2-0.4,0.6-0.8,1.1-0.8
			c0.6,0,1.2,0.6,1.2,1.2v3.3c0,0.6-0.5,1.2-1.2,1.2c-0.7,0-1.2-0.5-1.2-1.2c0-1.4-1.2-1.9-2.4-1.9h-6c-3.1,0-3.1,4.7,0,4.7
			c2.4,0,4.9,0,7.4,0C87.1,69.1,87.2,78.6,80.9,78.6z"/>
		<path class="st0" d="M96,61.3c11.9,0,11.9,18,0,18S84.2,61.3,96,61.3z M96,76.9c8.6,0,8.6-13.1,0-13.1
			C87.4,63.8,87.4,76.9,96,76.9z"/>
		<path class="st0" d="M124.4,77.5c0,0.7-0.5,1.2-1.2,1.2h-4.2c-0.6,0-1.2-0.5-1.2-1.2c0-0.7,0.5-1.2,1.2-1.2h0.9v-9.4l-3.6,4.8
			c-0.5,0.6-1.4,0.6-1.9,0l-4.3-5.1v9.7h0.9c0.7,0,1.2,0.5,1.2,1.2c0,0.7-0.5,1.2-1.2,1.2h-4.1c-0.7,0-1.2-0.5-1.2-1.2
			c0-0.7,0.5-1.2,1.2-1.2h0.9V64.5h-0.9c-0.7,0-1.2-0.5-1.2-1.2c0-0.7,0.5-1.2,1.2-1.2h2c0.4,0,0.7,0.1,0.9,0.4l5.4,6.5l4.8-6.4
			c0.3-0.3,0.6-0.5,1-0.5h2.1c0.6,0,1.2,0.5,1.2,1.2c0,0.7-0.5,1.2-1.2,1.2h-0.9v11.8h0.9C123.9,76.3,124.4,76.8,124.4,77.5z"/>
		<path class="st0" d="M142.1,75.1v2.3c0,0.5-0.3,0.9-0.6,1.1c-0.2,0.1-0.4,0.2-0.7,0.2h-13.1c-0.7,0-1.2-0.5-1.2-1.2
			c0-0.6,0.5-1.2,1.2-1.2h1.1v-4.8h-1.1c-0.7,0-1.2-0.5-1.2-1.2c0-0.6,0.5-1.2,1.2-1.2h1.1v-4.7h-1.1c-0.7,0-1.2-0.5-1.2-1.2
			c0-0.7,0.5-1.2,1.2-1.2h12.6c0.6,0,1.2,0.5,1.2,1.2v2.5c0,0.7-0.5,1.2-1.2,1.2c-0.7,0-1.2-0.5-1.2-1.2v-1.3h-8v4.7h5.4
			c0.6,0,1.2,0.5,1.2,1.2c0,0.7-0.5,1.2-1.2,1.2h-5.4v4.8h8.6v-1.1c0-0.7,0.5-1.2,1.2-1.2S142.1,74.5,142.1,75.1z"/>
	</g>
</g>
</svg>
