<?xml version="1.0" encoding="utf-8"?>
<!-- Generator: Adobe Illustrator 19.1.0, SVG Export Plug-In . SVG Version: 6.00 Build 0)  -->
<svg version="1.1" id="Layer_1" xmlns="http://www.w3.org/2000/svg" xmlns:xlink="http://www.w3.org/1999/xlink" x="0px" y="0px"
	 viewBox="0 0 38.4 32.7" style="enable-background:new 0 0 38.4 32.7;" xml:space="preserve">
<style type="text/css">
	.st0{clip-path:url(#SVGID_2_);}
	.st1{clip-path:url(#SVGID_4_);fill:#666666;}
</style>
<g>
	<g>
		<defs>
			<rect id="SVGID_1_" x="-6.4" y="-9.2" width="51.2" height="51.2"/>
		</defs>
		<clipPath id="SVGID_2_">
			<use xlink:href="#SVGID_1_"  style="overflow:visible;"/>
		</clipPath>
		<g class="st0">
			<defs>
				<rect id="SVGID_3_" x="-6.4" y="-9.2" width="51.2" height="51.2"/>
			</defs>
			<clipPath id="SVGID_4_">
				<use xlink:href="#SVGID_3_"  style="overflow:visible;"/>
			</clipPath>
			<path class="st1" d="M37.6,0H0.8C0.4,0,0,0.4,0,0.8v28.7c0,1.8,1.4,3.2,3.2,3.2h32c1.8,0,3.2-1.4,3.2-3.2V0.8
				C38.4,0.4,38,0,37.6,0 M31.7,4L19.2,15.1L6.8,4H31.7z M4,28.7V5.8l14.1,12.6c0.3,0.3,0.7,0.4,1.1,0.4c0.4,0,0.8-0.1,1.1-0.4
				L34.4,5.9v22.8H4z"/>
		</g>
	</g>
</g>
</svg>
