<?xml version="1.0" encoding="utf-8"?>
<!-- Generator: Adobe Illustrator 19.1.0, SVG Export Plug-In . SVG Version: 6.00 Build 0)  -->
<svg version="1.1" id="Layer_1" xmlns="http://www.w3.org/2000/svg" xmlns:xlink="http://www.w3.org/1999/xlink" x="0px" y="0px"
	 viewBox="0 0 26.1 38.5" style="enable-background:new 0 0 26.1 38.5;" xml:space="preserve">
<style type="text/css">
	.st0{clip-path:url(#SVGID_2_);}
	.st1{clip-path:url(#SVGID_4_);fill:#666666;}
</style>
<g>
	<g>
		<defs>
			<rect id="SVGID_1_" x="-12.6" y="-6.4" width="51.2" height="51.2"/>
		</defs>
		<clipPath id="SVGID_2_">
			<use xlink:href="#SVGID_1_"  style="overflow:visible;"/>
		</clipPath>
		<g class="st0">
			<defs>
				<rect id="SVGID_3_" x="-12.6" y="-6.4" width="51.2" height="51.2"/>
			</defs>
			<clipPath id="SVGID_4_">
				<use xlink:href="#SVGID_3_"  style="overflow:visible;"/>
			</clipPath>
			<path class="st1" d="M13,0C5.8,0,0,5.8,0,13c0,10.3,13,25.4,13,25.4S26,23.2,26,13C26,5.8,20.2,0,13,0 M13,18.6
				c-3.5,0-6.4-2.9-6.4-6.4c0-3.5,2.9-6.4,6.4-6.4s6.4,2.9,6.4,6.4C19.4,15.7,16.5,18.6,13,18.6"/>
			<path class="st1" d="M13,9c1.7,0,3.1,1.4,3.1,3.1s-1.4,3.1-3.1,3.1c-1.7,0-3.1-1.4-3.1-3.1S11.3,9,13,9"/>
		</g>
	</g>
</g>
</svg>
