<?xml version="1.0" encoding="utf-8"?>
<!-- Generator: Adobe Illustrator 19.1.0, SVG Export Plug-In . SVG Version: 6.00 Build 0)  -->
<svg version="1.1" id="Layer_1" xmlns="http://www.w3.org/2000/svg" xmlns:xlink="http://www.w3.org/1999/xlink" x="0px" y="0px"
	 viewBox="0 0 212.7 190.7" style="enable-background:new 0 0 212.7 190.7;" xml:space="preserve">
<g>
	<path d="M132.2,174.6c0.9-0.3,1.9,0.2,2.2,1.1c0.3,0.9-0.2,1.9-1.1,2.2c-0.2,0-0.4,0.1-0.6,0.1c-0.7,0-1.4-0.5-1.7-1.2
		C130.7,175.9,131.2,174.9,132.2,174.6z M123.7,176.8c1-0.2,1.9,0.4,2.1,1.4c0.2,1-0.4,1.9-1.4,2.1c-0.1,0-0.2,0-0.4,0
		c-0.8,0-1.6-0.6-1.7-1.4C122.2,178,122.8,177,123.7,176.8z M115.1,178.2c1-0.1,1.9,0.6,2,1.6c0.1,1-0.6,1.9-1.6,2
		c-0.1,0-0.1,0-0.2,0c-0.9,0-1.7-0.7-1.8-1.6C113.4,179.2,114.2,178.3,115.1,178.2z M81.8,176.9c-0.2,0.8-0.9,1.2-1.7,1.2
		c-0.2,0-0.4,0-0.5-0.1c-0.9-0.3-1.5-1.3-1.2-2.2c0.3-0.9,1.3-1.5,2.2-1.2v0C81.6,174.9,82.1,176,81.8,176.9z M90.5,179
		c-0.2,0.8-0.9,1.4-1.8,1.4c-0.1,0-0.3,0-0.4,0c-1-0.2-1.6-1.2-1.4-2.1c0.2-1,1.1-1.6,2.1-1.4C90.1,177.1,90.7,178,90.5,179z
		 M97.5,181.8c-0.1,0-0.1,0-0.2,0c-1-0.1-1.7-1-1.6-1.9c0.1-1,1-1.7,2-1.6c1,0.1,1.7,1,1.6,2C99.2,181.1,98.4,181.8,97.5,181.8z
		 M104.6,180.5c0-1,0.8-1.8,1.8-1.8c1,0,1.8,0.8,1.8,1.8c0,1-0.8,1.8-1.8,1.8C105.4,182.2,104.6,181.4,104.6,180.5z"/>
	<path d="M106.3,36.4c-32.8,0-59.4,26.6-59.4,59.4c0,11.3,3.1,21.8,8.6,30.8c9.8-2.3,19.8-4,29.8-5l-6.8-7.3h8l3.4-8.5L98.4,85
		l4.6,29.4h7.9l10.6-25.9l0.6-1.4l1.5-3.6l2.7-6.5h4.4l0.9-7.1l33.4,35.6c0.5-3.1,0.8-6.4,0.8-9.6C165.7,63,139.2,36.4,106.3,36.4z
		 M68.3,76.9h4.9l0.9,6.2L68.3,76.9z M84.5,100.1l-1.7-13l-1.4-10.1h5l0.9-7.1l6.7,7.1L84.5,100.1z M108.2,100.3L104,69.8L115.4,82
		L108.2,100.3z M116,80.6l-3.4-3.6h4.9L116,80.6z"/>
	<path d="M14.6,95.4c0-50.6,41.2-91.8,91.8-91.8c50.6,0,91.8,41.2,91.8,91.8c0,14.8-3.5,28.7-9.8,41.1c1.1,0.4,2.2,0.9,3.3,1.3
		c6.4-12.8,10-27.2,10-42.5c0-52.6-42.8-95.4-95.3-95.4C53.8,0,11,42.8,11,95.4c0,15.2,3.6,29.7,10,42.5c1.1-0.5,2.2-0.9,3.3-1.3
		C18.1,124.1,14.6,110.1,14.6,95.4z"/>
	<path d="M106.3,187.1c-16.7,0-32.4-4.5-45.9-12.4c-1.6,0.4-3.2,0.9-4.7,1.3c14.7,9.2,32,14.6,50.6,14.6c18.6,0,35.9-5.4,50.6-14.6
		c-1.6-0.5-3.1-0.9-4.7-1.3C138.7,182.6,123.1,187.1,106.3,187.1z"/>
	<polygon points="30.9,80.4 30.7,81.9 36.8,85.2 29.7,87 36.2,90.3 29.6,92.1 29.5,93.6 40,90.7 33.5,87.4 40.5,85.7 	"/>
	<polygon points="40.1,77.7 37.1,76.9 38.1,73.3 36.8,72.9 35.8,76.5 33.6,75.9 34.6,72.2 33.3,71.9 31.9,76.9 41.1,79.5 42.5,74.4 
		41.2,74 	"/>
	<path d="M44.5,67c-0.3-0.7-0.7-1.2-1.4-1.5c-0.5-0.2-1-0.3-1.5-0.2c-0.5,0.1-0.9,0.4-1.3,0.8c-0.2-0.7-0.7-1.1-1.3-1.4
		c-0.3-0.1-0.7-0.2-1.1-0.2c-0.4,0-0.8,0.1-1.1,0.2c-0.3,0.2-0.6,0.4-0.8,0.7c-0.2,0.3-0.5,0.8-0.7,1.4l-0.6,1.3l8.8,3.7l0.8-2
		c0.2-0.6,0.4-1.1,0.5-1.6C44.7,67.8,44.6,67.4,44.5,67z M39.1,68l-0.2,0.4l-2.6-1.1l0.2-0.5c0.2-0.4,0.4-0.7,0.8-0.9
		c0.3-0.1,0.7-0.1,1.1,0c0.4,0.2,0.7,0.4,0.8,0.7C39.3,67.1,39.3,67.5,39.1,68z M43,69.1l-0.3,0.8L40,68.8l0.3-0.7
		c0.3-0.7,0.6-1.2,1-1.3c0.4-0.2,0.8-0.2,1.1,0c0.4,0.2,0.7,0.4,0.8,0.8C43.3,68,43.3,68.5,43,69.1z"/>
	<path d="M51.5,54.4c-0.2-1.4-0.8-2.4-2.1-3.3c-1.2-0.8-2.4-1.1-3.7-0.8c-0.6,0.1-1.2,0.4-1.7,0.8c-0.5,0.3-1,0.9-1.5,1.7l-1.1,1.6
		l7.8,5.4l1.1-1.6c0.6-0.8,0.9-1.5,1.1-2C51.5,55.7,51.5,55.1,51.5,54.4z M50,56c-0.1,0.4-0.4,0.9-0.8,1.4l-0.4,0.5l-5.6-3.9
		l0.4-0.5c0.7-1,1.5-1.6,2.3-1.8c0.9-0.2,1.8,0,2.7,0.6c0.9,0.6,1.3,1.4,1.5,2.3C50.1,55.1,50.1,55.5,50,56z"/>
	<polygon points="55,49.8 52.7,47.7 55.2,44.9 54.2,44 51.7,46.8 50,45.2 52.5,42.4 51.5,41.5 48,45.4 55.1,51.8 58.6,47.9 57.6,47 
			"/>
	<path d="M61.5,39.2c-0.6-0.1-1.2,0-2,0.2l-1,0.3c-0.7,0.2-1.2,0.2-1.5-0.2c-0.2-0.3-0.3-0.6-0.2-0.9c0-0.3,0.2-0.6,0.5-0.9
		c0.2-0.2,0.5-0.3,0.7-0.4c0.2,0,0.5,0,1,0.2l0.4-1.3c-1.2-0.4-2.2-0.2-3,0.5c-0.6,0.5-1,1.2-1.1,1.9c-0.1,0.7,0.1,1.4,0.6,1.9
		c0.7,0.8,1.7,1,3.1,0.5l0.9-0.3c0.2-0.1,0.5-0.1,0.7-0.2c0.2,0,0.4,0,0.6,0c0.2,0,0.3,0.1,0.5,0.2c0.1,0.1,0.3,0.2,0.4,0.3
		c0.3,0.3,0.4,0.7,0.4,1.2c0,0.4-0.2,0.8-0.6,1.1c-0.4,0.4-0.9,0.5-1.4,0.4c-0.3-0.1-0.6-0.3-1-0.6l-0.9,1.2
		c0.7,0.6,1.4,0.9,2.1,0.9c0.7,0,1.4-0.2,2-0.8c0.7-0.6,1-1.3,1.1-2.1c0.1-0.8-0.2-1.6-0.8-2.2C62.5,39.6,62,39.3,61.5,39.2z"/>
	<polygon points="61.5,33 67,40.7 68.2,39.9 62.7,32.1 	"/>
	<path d="M76.3,29.7l-0.2-0.3l-3.5,1.9l0.6,1.2l2.1-1.1c0.3,0.6,0.3,1.3,0,2c-0.3,0.7-0.7,1.2-1.3,1.5c-0.7,0.4-1.6,0.5-2.5,0.3
		c-1-0.2-1.7-0.8-2.3-1.8c-0.5-0.9-0.6-1.8-0.3-2.7c0.3-0.9,0.8-1.6,1.7-2.1c1-0.5,2.1-0.5,3.3,0l0.4-1.3c-0.8-0.3-1.6-0.5-2.3-0.4
		c-0.7,0-1.4,0.2-2.1,0.6c-1.2,0.7-2,1.6-2.4,3c-0.4,1.3-0.3,2.6,0.4,3.8c0.6,1.2,1.6,2,2.9,2.4c1.3,0.4,2.5,0.3,3.7-0.4
		c1.2-0.7,2-1.6,2.3-2.9c0.1-0.6,0.1-1.1,0-1.7C76.9,31,76.7,30.4,76.3,29.7z"/>
	<polygon points="85.8,21.1 84.5,21.6 86.6,27.8 77.7,23.2 80.9,32.8 82.3,32.4 80.2,26 89.1,30.7 	"/>
	<path d="M102.8,25.8c0.2-0.3,0.4-0.6,0.6-0.8c0.2-0.2,0.3-0.4,0.4-0.6l-1-0.9c-0.1,0.2-0.3,0.4-0.4,0.6c-0.1,0.2-0.3,0.4-0.5,0.6
		l0,0.1l-1.9-1.9c0.6-0.5,0.9-1,1.1-1.3c0.2-0.4,0.3-0.7,0.2-1.1c-0.1-0.6-0.3-1.1-0.8-1.4c-0.5-0.4-1-0.5-1.7-0.4
		c-0.7,0.1-1.2,0.3-1.6,0.8c-0.4,0.4-0.5,1-0.5,1.6c0.1,0.6,0.4,1.3,1.1,1.9c0,0-0.1,0.1-0.1,0.1c0,0,0,0,0,0l-0.6,0.5
		C96.3,24.2,96,25,96,26c0.1,0.8,0.4,1.4,1,1.9c0.6,0.5,1.4,0.7,2.2,0.6c0.9-0.1,1.8-0.6,2.6-1.6l1.1,1.1l1.8-0.2L102.8,25.8z
		 M98.3,20.1c0.2-0.2,0.4-0.3,0.6-0.3c0.3,0,0.5,0,0.7,0.2c0.2,0.1,0.3,0.3,0.3,0.6c0,0.2,0,0.4-0.1,0.6c0,0.1-0.1,0.2-0.3,0.3
		c-0.1,0.1-0.3,0.3-0.5,0.4L99,22c0,0-0.1-0.1-0.1-0.1l-0.4-0.4c-0.2-0.3-0.4-0.5-0.4-0.8C98.1,20.5,98.1,20.3,98.3,20.1z
		 M99.1,27.2c-0.4,0-0.8-0.1-1.1-0.4c-0.4-0.3-0.5-0.6-0.6-1c0-0.3,0.1-0.5,0.2-0.8c0.2-0.3,0.6-0.6,1.1-1.1l0.1-0.1l2.1,2.1
		C100.3,26.7,99.7,27.2,99.1,27.2z"/>
	<path d="M118.5,20.6c-0.4-0.5-0.9-0.9-1.5-1.1c-0.5-0.3-1.3-0.4-2.2-0.6l-2-0.3l-1.2,9.5l2,0.2c1,0.1,1.7,0.1,2.3,0
		c0.6-0.1,1.2-0.3,1.7-0.7c1.1-0.8,1.8-1.9,2-3.3C119.7,22.8,119.4,21.6,118.5,20.6z M118.1,24.1c-0.1,1-0.6,1.8-1.4,2.4
		c-0.4,0.3-0.8,0.4-1.2,0.5c-0.4,0.1-1,0.1-1.6,0l-0.6-0.1l0.9-6.8l0.6,0.1c1.2,0.2,2.1,0.6,2.7,1.2C118,22.1,118.2,23,118.1,24.1z"
		/>
	<polygon points="121.5,29.6 126.6,30.9 126.9,29.6 123.2,28.7 124.1,25.6 127.6,26.5 128,25.2 124.4,24.3 125,22.1 128.7,23 
		129,21.7 124,20.4 	"/>
	<polygon points="138.2,25.2 133.2,30.3 133.3,23.2 131.8,22.6 131.8,33.7 139.6,25.8 	"/>
	<polygon points="144.5,34.3 145.2,33.1 142,31.2 143.1,29.3 146.4,31.2 147.1,30 142.6,27.4 137.8,35.6 142.4,38.3 143,37.1 
		139.7,35.2 141.3,32.4 	"/>
	<polygon points="151.4,33 150.3,32.1 144.7,39.8 148.1,42.3 148.9,41.2 146.6,39.6 	"/>
	<path d="M159.6,39.5c-1-0.9-2.2-1.4-3.5-1.4c-1.4,0-2.5,0.5-3.5,1.5c-1.1,1.1-1.5,2.4-1.4,3.8c0.1,1.3,0.6,2.4,1.5,3.2
		c1,1,2.2,1.4,3.6,1.4c1.4,0,2.5-0.5,3.5-1.5c0.9-1,1.4-2.2,1.4-3.5C161.1,41.6,160.6,40.5,159.6,39.5z M158.7,45.5
		c-0.7,0.7-1.5,1.1-2.5,1.1c-1,0-1.8-0.3-2.5-1c-0.7-0.6-1-1.4-1.1-2.4c0-1,0.3-1.8,1-2.6c0.7-0.7,1.5-1.1,2.5-1.1
		c1,0,1.8,0.3,2.5,1c0.7,0.7,1.1,1.5,1.1,2.5C159.7,43.9,159.4,44.8,158.7,45.5z"/>
	<path d="M167.6,49c-0.2-0.4-0.5-0.9-1-1.5l-1-1.3l-7.5,5.9l0.9,1.1l3.1-2.4l0.4,0.5c0.6,0.8,1.3,1.2,2.1,1.4c0.8,0.1,1.5,0,2.2-0.6
		c0.6-0.5,1-1.1,1.1-1.9C167.8,49.8,167.7,49.4,167.6,49z M165.8,51c-0.8,0.6-1.6,0.4-2.4-0.6l-0.3-0.4l2.4-1.8l0.3,0.4
		C166.6,49.6,166.6,50.4,165.8,51z"/>
	<polygon points="167.7,61.1 172.5,54.6 162.6,57.8 163.3,59.1 168.9,57.2 164.8,62.6 171.6,62.1 167,65.7 167.7,67 175.8,60.4 	"/>
	<polygon points="170.5,70.5 173.4,69.4 174.7,72.9 176,72.4 174.7,69 176.9,68.2 178.2,71.8 179.5,71.3 177.6,66.4 168.7,69.6 
		170.5,74.6 171.8,74.1 	"/>
	<polygon points="182.4,83.4 182.1,82 175.6,83.4 181.3,75.1 171.4,77.2 171.7,78.6 178.2,77.2 172.5,85.5 	"/>
	<polygon points="182.8,86.8 181.4,86.9 181.6,89.1 173.4,89.7 173.5,91.1 181.7,90.5 181.8,92.7 183.2,92.6 	"/>
	<path d="M79.8,16.3c0.2,0,0.4,0,0.6-0.1c1-0.3,1.4-1.3,1.1-2.3c-0.3-0.9-1.3-1.5-2.2-1.1c-0.9,0.3-1.4,1.3-1.1,2.2
		C78.4,15.8,79.1,16.3,79.8,16.3z"/>
	<path d="M71.5,19.5c0.2,0,0.5-0.1,0.7-0.2c0.9-0.4,1.3-1.5,0.9-2.4c-0.4-0.9-1.5-1.3-2.4-0.9c-0.9,0.4-1.3,1.4-0.9,2.4
		C70.2,19.1,70.8,19.5,71.5,19.5z"/>
	<path d="M114.8,12.5c0.1,0,0.1,0,0.2,0c0.9,0,1.7-0.7,1.8-1.6c0.1-1-0.6-1.9-1.6-1.9c-1-0.1-1.9,0.6-2,1.6
		C113.1,11.5,113.8,12.4,114.8,12.5z"/>
	<path d="M63.6,23.5c0.3,0,0.6-0.1,0.9-0.3c0.9-0.5,1.1-1.6,0.6-2.4c-0.5-0.9-1.6-1.1-2.4-0.7c-0.9,0.5-1.1,1.6-0.6,2.4
		C62.4,23.2,63,23.5,63.6,23.5z"/>
	<path d="M49.2,34c0.4,0,0.9-0.1,1.2-0.5c0.7-0.7,0.8-1.8,0.1-2.5c-0.7-0.7-1.8-0.8-2.5-0.1c-0.7,0.7-0.8,1.8-0.1,2.5
		C48.3,33.8,48.8,34,49.2,34z"/>
	<path d="M43,40.3c0.5,0,1-0.2,1.3-0.6c0.7-0.7,0.6-1.9-0.1-2.5c-0.7-0.7-1.9-0.6-2.5,0.1c-0.7,0.7-0.6,1.9,0.1,2.5
		C42.1,40.2,42.5,40.3,43,40.3z"/>
	<path d="M37.4,47.3c0.6,0,1.1-0.2,1.4-0.7c0.6-0.8,0.4-1.9-0.4-2.5c-0.8-0.6-1.9-0.4-2.5,0.4c-0.6,0.8-0.4,1.9,0.4,2.5
		C36.6,47.2,37,47.3,37.4,47.3z"/>
	<path d="M56.1,28.4c0.4,0,0.7-0.1,1-0.3c0.8-0.6,1-1.7,0.4-2.5c-0.6-0.8-1.7-1-2.5-0.4c-0.8,0.6-1,1.7-0.4,2.5
		C55,28.2,55.6,28.4,56.1,28.4z"/>
	<path d="M163.1,33.7c0.5,0,1-0.2,1.3-0.6c0.6-0.7,0.6-1.9-0.1-2.5c-0.7-0.7-1.9-0.6-2.5,0.1c-0.6,0.7-0.6,1.9,0.1,2.5
		C162.2,33.5,162.6,33.7,163.1,33.7z"/>
	<path d="M123.4,13.8c0.1,0,0.2,0,0.4,0c0.8,0,1.6-0.6,1.8-1.4c0.2-1-0.4-1.9-1.4-2.1c-1-0.2-1.9,0.4-2.1,1.4
		C121.8,12.6,122.4,13.6,123.4,13.8z"/>
	<path d="M169.4,40c0.4,0,0.9-0.2,1.2-0.5c0.7-0.7,0.8-1.8,0.1-2.5c-0.7-0.7-1.8-0.8-2.5-0.1c-0.7,0.7-0.8,1.8-0.1,2.5
		C168.4,39.8,168.9,40,169.4,40z"/>
	<path d="M191.2,102.5c-1-0.1-1.9,0.6-2,1.6c-0.1,1,0.6,1.9,1.6,1.9c0.1,0,0.1,0,0.2,0c0.9,0,1.7-0.7,1.8-1.6
		C192.9,103.4,192.1,102.6,191.2,102.5z"/>
	<path d="M175,46.9c0.4,0,0.7-0.1,1.1-0.3c0.8-0.6,1-1.7,0.4-2.5c-0.6-0.8-1.7-1-2.5-0.4c-0.8,0.6-1,1.7-0.4,2.5
		C173.9,46.6,174.5,46.9,175,46.9z"/>
	<path d="M156.1,28.1c0.5,0,1.1-0.3,1.4-0.7c0.6-0.8,0.4-1.9-0.4-2.5c-0.8-0.6-1.9-0.4-2.5,0.4c-0.6,0.8-0.4,1.9,0.4,2.5
		C155.4,28,155.8,28.1,156.1,28.1z"/>
	<path d="M140,19.1c0.2,0.1,0.5,0.2,0.7,0.2c0.7,0,1.3-0.4,1.6-1.1c0.4-0.9,0-1.9-0.9-2.3c-0.9-0.4-1.9,0-2.4,0.9
		C138.7,17.7,139.1,18.7,140,19.1z"/>
	<path d="M147.7,23c0.3,0.2,0.6,0.2,0.9,0.2c0.6,0,1.2-0.3,1.6-0.9c0.5-0.9,0.2-1.9-0.7-2.4c-0.9-0.5-1.9-0.2-2.4,0.7
		C146.6,21.5,146.9,22.6,147.7,23z"/>
	<path d="M27.9,128.5c-0.9,0.4-1.3,1.5-0.9,2.4c0.3,0.7,0.9,1.1,1.6,1.1c0.2,0,0.5-0.1,0.7-0.2c0.9-0.4,1.3-1.5,0.9-2.4
		C29.9,128.5,28.8,128.1,27.9,128.5z"/>
	<path d="M31.6,54.5c0.3,0.2,0.6,0.2,0.9,0.2c0.6,0,1.2-0.3,1.6-0.9c0.5-0.9,0.2-1.9-0.7-2.4c-0.9-0.5-1.9-0.2-2.4,0.6
		C30.5,52.9,30.8,54,31.6,54.5z"/>
	<path d="M182.3,61.2c0.3,0.7,1,1.1,1.6,1.1c0.2,0,0.5-0.1,0.7-0.2c0.9-0.4,1.3-1.5,0.9-2.4c-0.4-0.9-1.5-1.3-2.4-0.9
		C182.3,59.2,181.9,60.3,182.3,61.2L182.3,61.2z"/>
	<path d="M88,10.4c-1,0.2-1.6,1.1-1.4,2.1c0.2,0.8,0.9,1.4,1.7,1.4c0.1,0,0.3,0,0.4,0c1-0.2,1.6-1.2,1.4-2.1
		C89.9,10.8,89,10.2,88,10.4z"/>
	<path d="M132.4,16.1c0.7,0,1.5-0.5,1.7-1.2c0.3-0.9-0.2-1.9-1.2-2.2c-0.9-0.3-1.9,0.2-2.3,1.2c-0.3,0.9,0.2,1.9,1.2,2.2
		C132,16.1,132.2,16.1,132.4,16.1z"/>
	<path d="M106.1,8.5c-1,0-1.8,0.8-1.8,1.8c0,1,0.8,1.8,1.8,1.8c1,0,1.8-0.8,1.8-1.8C107.8,9.3,107,8.5,106.1,8.5z"/>
	<path d="M190,111.3c-1-0.2-1.9,0.4-2.1,1.4c-0.2,1,0.4,1.9,1.4,2.1c0.1,0,0.2,0,0.4,0c0.8,0,1.6-0.6,1.7-1.4
		C191.5,112.4,190.9,111.5,190,111.3z"/>
	<path d="M187.8,119.9c-0.9-0.3-1.9,0.2-2.2,1.1c-0.3,0.9,0.2,1.9,1.2,2.2c0.2,0.1,0.4,0.1,0.5,0.1c0.8,0,1.5-0.5,1.7-1.2
		C189.3,121.2,188.8,120.2,187.8,119.9z"/>
	<path d="M184.8,128.3c-0.9-0.4-1.9,0-2.4,0.9c-0.4,0.9,0,2,0.9,2.4c0.2,0.1,0.5,0.2,0.7,0.2c0.7,0,1.3-0.4,1.6-1.1c0,0,0,0,0,0
		C186.1,129.8,185.7,128.7,184.8,128.3z"/>
	<path d="M97.4,12.5c1-0.1,1.7-1,1.6-2c-0.1-1-1-1.7-2-1.6c-1,0.1-1.7,1-1.6,2c0.1,0.9,0.9,1.6,1.8,1.6
		C97.2,12.5,97.3,12.5,97.4,12.5z"/>
	<path d="M22.7,79.6c0.1,0,0.2,0,0.4,0c0.8,0,1.6-0.6,1.7-1.4c0.2-1-0.4-1.9-1.4-2.1c-1-0.2-1.9,0.4-2.1,1.4
		C21.1,78.4,21.7,79.4,22.7,79.6z"/>
	<path d="M24.8,70.9C25,71,25.1,71,25.3,71c0.7,0,1.4-0.5,1.7-1.2c0.3-0.9-0.2-1.9-1.2-2.2c-0.9-0.3-1.9,0.2-2.2,1.1
		C23.3,69.6,23.8,70.6,24.8,70.9z"/>
	<path d="M27.8,62.5c0.2,0.1,0.5,0.1,0.7,0.1c0.7,0,1.3-0.4,1.6-1.1c0.4-0.9,0-2-0.9-2.4c-0.9-0.4-1.9,0-2.4,0.9
		C26.5,61.1,26.9,62.1,27.8,62.5z"/>
	<path d="M21.5,88.4c0.1,0,0.1,0,0.2,0c0.9,0,1.7-0.7,1.8-1.6c0.1-1-0.6-1.9-1.6-1.9c-1-0.1-1.9,0.6-2,1.6
		C19.8,87.4,20.5,88.3,21.5,88.4z"/>
	<path d="M24.9,112.8c-0.2-1-1.2-1.6-2.1-1.4c-1,0.2-1.6,1.2-1.4,2.1c0.2,0.8,0.9,1.4,1.7,1.4c0.1,0,0.2,0,0.4,0
		C24.5,114.8,25.1,113.8,24.9,112.8z"/>
	<path d="M27.1,121.2c-0.3-0.9-1.3-1.4-2.2-1.1c-0.9,0.3-1.5,1.3-1.1,2.3c0.2,0.7,0.9,1.2,1.7,1.2c0.2,0,0.4,0,0.6-0.1
		C26.9,123.2,27.4,122.2,27.1,121.2z"/>
	<path d="M21.9,106.2c1-0.1,1.7-1,1.6-2c-0.1-1-1-1.7-2-1.6c-1,0.1-1.7,1-1.6,2c0.1,0.9,0.9,1.6,1.8,1.6
		C21.8,106.2,21.8,106.2,21.9,106.2z"/>
	<path d="M21.2,97.3c1,0,1.8-0.8,1.8-1.8c0-1-0.8-1.8-1.8-1.8c-1,0-1.8,0.8-1.8,1.8C19.5,96.5,20.3,97.3,21.2,97.3z"/>
	<path d="M179.9,54.3c0.3,0,0.6-0.1,0.9-0.2c0.8-0.5,1.1-1.6,0.6-2.4c-0.5-0.9-1.6-1.1-2.4-0.6c-0.9,0.5-1.1,1.6-0.6,2.4
		C178.7,54,179.3,54.3,179.9,54.3z"/>
	<path d="M124.1,180.4c0.1,0,0.2,0,0.4,0c1-0.2,1.6-1.2,1.4-2.1c-0.2-1-1.2-1.6-2.1-1.4c-1,0.2-1.6,1.2-1.4,2.1
		C122.5,179.8,123.3,180.4,124.1,180.4z"/>
	<path d="M115.3,181.8c0.1,0,0.1,0,0.2,0c1-0.1,1.7-1,1.6-2c-0.1-1-1-1.7-2-1.6c-1,0.1-1.7,1-1.6,2
		C113.6,181.1,114.4,181.8,115.3,181.8z"/>
	<path d="M80.7,174.7L80.7,174.7c-0.9-0.3-1.9,0.2-2.2,1.1c-0.3,0.9,0.2,1.9,1.2,2.2c0.2,0.1,0.4,0.1,0.5,0.1c0.8,0,1.5-0.5,1.7-1.2
		C82.1,176,81.6,174.9,80.7,174.7z"/>
	<path d="M132.7,178.1c0.2,0,0.4,0,0.6-0.1c0.9-0.3,1.4-1.3,1.1-2.2c-0.3-0.9-1.3-1.4-2.2-1.1c-0.9,0.3-1.5,1.3-1.1,2.2
		C131.3,177.6,132,178.1,132.7,178.1z"/>
	<path d="M139.4,173.8c0.3,0.7,0.9,1.1,1.6,1.1c0.2,0,0.5-0.1,0.7-0.2c0.9-0.4,1.2-1.3,1-2.2c-1-0.2-2-0.4-3-0.6
		C139.2,172.5,139.1,173.2,139.4,173.8z"/>
	<path d="M89.1,176.9c-1-0.2-1.9,0.4-2.1,1.4c-0.2,1,0.4,1.9,1.4,2.1c0.1,0,0.2,0,0.4,0c0.8,0,1.6-0.6,1.8-1.4
		C90.7,178,90.1,177.1,89.1,176.9z"/>
	<path d="M71.1,174.8c0.2,0.1,0.5,0.1,0.7,0.1c0.7,0,1.3-0.4,1.6-1.1c0.3-0.7,0.1-1.5-0.3-2c-1,0.2-2,0.4-2.9,0.6
		C69.8,173.4,70.2,174.4,71.1,174.8z"/>
	<path d="M191.4,93.2c-1,0-1.8,0.8-1.8,1.8c0,0.1,0,0.1,0,0.2c0,0.1,0,0.1,0,0.2c0,1,0.8,1.8,1.8,1.8c1,0,1.8-0.8,1.8-1.8
		c0-0.1,0-0.1,0-0.2c0-0.1,0-0.1,0-0.2C193.2,94,192.4,93.2,191.4,93.2z"/>
	<path d="M97.7,178.2c-1-0.1-1.9,0.6-2,1.6c-0.1,1,0.6,1.9,1.6,1.9c0.1,0,0.1,0,0.2,0c0.9,0,1.7-0.7,1.8-1.6
		C99.4,179.2,98.7,178.3,97.7,178.2z"/>
	<path d="M185.5,69.3c0.2,0.7,0.9,1.2,1.7,1.2c0.2,0,0.4,0,0.6-0.1c0.9-0.3,1.4-1.3,1.1-2.2c-0.3-0.9-1.3-1.4-2.3-1.1
		C185.7,67.3,185.2,68.4,185.5,69.3z"/>
	<path d="M187.8,77.7c0.2,0.8,0.9,1.4,1.7,1.4c0.1,0,0.3,0,0.4,0c1-0.2,1.6-1.2,1.4-2.1c-0.2-1-1.2-1.6-2.1-1.4
		C188.2,75.8,187.6,76.7,187.8,77.7z"/>
	<path d="M189.2,86.3c0.1,0.9,0.9,1.6,1.8,1.6c0.1,0,0.1,0,0.2,0c1-0.1,1.7-1,1.6-2c-0.1-1-1-1.7-2-1.6
		C189.8,84.5,189.1,85.3,189.2,86.3z"/>
	<path d="M108.2,180.5c0-1-0.8-1.8-1.8-1.8c-1,0-1.8,0.8-1.8,1.8c0,1,0.8,1.8,1.8,1.8C107.4,182.2,108.2,181.4,108.2,180.5z"/>
	<path d="M141.6,147.6l-0.9-0.1l-0.4,2.2l0.9,0.2c0.5,0.1,1,0.1,1.2-0.1c0.3-0.1,0.4-0.4,0.5-0.8c0.1-0.4,0-0.7-0.2-0.9
		C142.6,147.8,142.2,147.7,141.6,147.6z"/>
	<path d="M142.3,143.5l-0.9-0.2l-0.3,1.9l0.6,0.1c0.5,0.1,0.9,0.1,1.2,0c0.3-0.1,0.4-0.3,0.5-0.6c0.1-0.4,0-0.6-0.2-0.8
		C143.1,143.7,142.8,143.5,142.3,143.5z"/>
	<polygon points="55.5,150.1 57,149.7 55.6,147.5 	"/>
	<path d="M106.3,124.1c-36.7,0-73.4,9.6-106.3,27.7c6.3,3.8,12.4,7.9,18.2,12.3l0.8,0.6l-0.1,1c-1.1,7.5-1.8,15.1-2.3,22.6
		c27.8-15.2,58.8-23.2,89.8-23.2c31,0,62,8,89.8,23.2c-0.5-7.5-1.3-15.1-2.3-22.6l-0.1-1l0.8-0.6c5.8-4.3,11.9-8.5,18.2-12.3
		C179.8,133.7,143,124.1,106.3,124.1z M168,156.4l1,0.3l2.1-6.2l-1-0.3l-0.5,1.4l-1.9-0.6l1.2-3.6l8.4,2.8l-1.2,3.6l-1.9-0.6
		l0.5-1.4l-1-0.3l-2.1,6.2l1,0.3l-0.7,2.2l-4.6-1.5L168,156.4z M156.5,153.1l1,0.3l1.8-6.3l-1-0.3l0.6-2.2l7.9,2.2l-0.9,3.4
		l-2.4-0.7l0.3-1.2l-1.8-0.5l-0.5,1.9l2.4,0.7l-0.7,2.4l-2.4-0.7l-0.6,2l1.8,0.5l0.3-1.2l2.4,0.7l-1,3.4l-7.9-2.2L156.5,153.1z
		 M101.4,138l2-0.1l0.1,3.7l-2.8,0.1c-0.3-0.4-0.6-0.7-1-0.9c-0.4-0.2-0.8-0.3-1.3-0.3c-0.9,0-1.6,0.4-2.1,1
		c-0.6,0.6-0.8,1.4-0.8,2.2c0,0.9,0.4,1.6,1,2.3c0.6,0.6,1.3,0.9,2.1,0.9c0.5,0,1-0.2,1.4-0.5c0.4-0.3,0.8-0.7,1-1.2l-3.2,0.1
		l-0.1-2.2l6.2-0.2l0.2,6.2l-2.1,0.1l0-1.2c-0.4,0.5-0.9,0.9-1.4,1.1c-0.5,0.3-1.2,0.4-1.9,0.4c-0.8,0-1.6-0.1-2.3-0.4
		c-0.7-0.3-1.3-0.7-1.9-1.2c-0.5-0.5-1-1.1-1.3-1.8c-0.3-0.7-0.5-1.4-0.5-2.2c0-0.8,0.1-1.5,0.4-2.2c0.3-0.7,0.7-1.3,1.2-1.9
		c0.5-0.6,1.1-1,1.8-1.3c0.7-0.3,1.4-0.5,2.2-0.5c0.7,0,1.3,0,1.8,0.2c0.5,0.2,1,0.5,1.4,0.9L101.4,138z M47.8,146.2l1.1,3.4
		l-2.4,0.7l-0.4-1.2l-1.8,0.5l0.6,1.9l2.4-0.7l0.7,2.4l-2.4,0.7l0.6,2l1.8-0.5l-0.4-1.2l2.3-0.7l1,3.4l-7.8,2.4l-0.7-2.2l1-0.3
		l-1.9-6.3l-1,0.3l-0.7-2.2L47.8,146.2z M33.4,162.8l-2.4,0.9l-5.4-7.5l-0.8,0.3l-0.8-2.1l4.2-1.6l0.8,2.1l-0.9,0.3l2.6,3.9l-0.9-7
		l2.3-0.9l4,6l-0.6-4.8l-0.9,0.3l-0.8-2.1l4.2-1.6l0.8,2.1l-0.8,0.3l0.9,9.1l-2.3,0.9l-4.1-5.9L33.4,162.8z M57.7,152.7l0.9-0.2
		l-0.5-0.8l-2.7,0.7l-0.1,1l0.9-0.2l0.6,2.2l-4.7,1.2l-0.6-2.2l1-0.3l0.9-7l-1,0.3l-0.6-2.2l4.1-1l5.4,7.8l1.1-0.3l0.6,2.2l-4.7,1.2
		L57.7,152.7z M69.2,152.6l-2.9,0.6l-4.4-8.2l-0.9,0.2l-0.4-2.2L65,142l0.4,2.2l-0.9,0.2l2.4,4.8l0.4-5.4l-0.8,0.2l-0.4-2.3l4.4-0.9
		l0.4,2.2l-0.9,0.2L69.2,152.6z M73.9,151.7l-0.3-2.3l1.1-0.2l-1-6.5l-1.1,0.2l-0.3-2.3L77,140l0.3,2.3l-1,0.2l1,6.5l1-0.2l0.3,2.3
		L73.9,151.7z M80,148.4l1.1-0.1l-0.7-6.5l-1.1,0.1l-0.2-2.3l3.5-0.4l4.7,5.8l-0.4-3.9l-1.1,0.1l-0.2-2.3l4.8-0.5l0.2,2.3l-1,0.1
		l0.9,8.8l-2.4,0.2l-4.8-5.8l0.4,3.9l1-0.1l0.2,2.3l-4.8,0.5L80,148.4z M125.8,141l-0.9,0l-2.9,8.7l-2.5-0.1l-1.3-7l-2.1,6.8
		l-2.5-0.1l-1.9-9l-0.9-0.1l0.1-2.3l4.5,0.3l-0.1,2.3l-0.9-0.1l0.8,4.6l2-6.7l2.4,0.1l1.2,7.1l1.4-4.7l-0.9-0.1l0.1-2.3l4.5,0.3
		L125.8,141z M135.5,143.6l-2.4-0.3l0.2-1.3l-1.9-0.2l-0.2,2l2.5,0.3l-0.3,2.5l-2.5-0.3l-0.3,2.1l1.9,0.2l0.2-1.3l2.4,0.3l-0.4,3.6
		l-8.1-1l0.3-2.3l1.1,0.1l0.8-6.5l-1.1-0.1l0.3-2.3l8.1,1L135.5,143.6z M145.9,144.4c-0.1,0.6-0.3,1-0.6,1.4
		c-0.3,0.3-0.7,0.6-1.2,0.7c0.6,0.3,1,0.7,1.3,1.2c0.2,0.5,0.3,1,0.2,1.7c-0.1,0.5-0.3,1-0.5,1.4c-0.3,0.4-0.6,0.7-1,1
		c-0.4,0.2-0.8,0.4-1.3,0.4c-0.5,0-1.2,0-2.1-0.2l-4.4-0.8l0.4-2.3l1.1,0.2l1.1-6.5l-1.1-0.2l0.4-2.3l4.8,0.8
		c1.1,0.2,1.9,0.6,2.4,1.1C145.9,142.9,146.1,143.6,145.9,144.4z M146.5,153.1l0.5-2.2l1,0.2l1.4-6.4l-1.1-0.2l0.5-2.2l4.7,1.1
		l-0.5,2.2l-1-0.2l-1.4,6.4l1.8,0.4l0.3-1.3l2.4,0.5l-0.8,3.5L146.5,153.1z M184.9,156.5l-2.2-0.8c0.1-0.4,0.1-0.7,0-0.9
		c-0.1-0.3-0.3-0.4-0.6-0.5c-0.3-0.1-0.5-0.1-0.7,0c-0.2,0.1-0.4,0.3-0.5,0.5c-0.1,0.2-0.1,0.4-0.1,0.5c0,0.2,0.1,0.3,0.2,0.5
		c0.2,0.2,0.5,0.4,0.9,0.8c0.4,0.3,0.7,0.6,0.9,0.8c0.5,0.6,0.8,1.2,1,1.8c0.1,0.6,0.1,1.2-0.1,1.8c-0.4,0.9-1,1.6-1.9,2
		c-0.9,0.4-1.8,0.5-2.7,0.1c-0.3-0.1-0.6-0.3-0.8-0.5c-0.3-0.2-0.5-0.5-0.7-0.8l-0.1,0.3l-2-0.8l1.3-3.4l2.4,0.9
		c-0.1,0.5-0.2,0.9-0.1,1.2c0.1,0.3,0.3,0.5,0.6,0.6c0.3,0.1,0.6,0.1,0.8,0c0.3-0.1,0.5-0.3,0.6-0.6c0.1-0.2,0.1-0.3,0.1-0.5
		c0-0.2-0.1-0.3-0.2-0.5c-0.2-0.2-0.4-0.4-0.8-0.7c-0.3-0.3-0.6-0.5-0.7-0.6c-0.6-0.6-1-1.2-1.2-1.9c-0.2-0.6-0.2-1.3,0.1-1.9
		c0.4-0.9,1-1.5,1.8-1.9c0.9-0.4,1.7-0.4,2.7,0c0.3,0.1,0.6,0.3,0.8,0.5c0.2,0.2,0.4,0.4,0.6,0.7l0.1-0.3l1.9,0.7L184.9,156.5z"/>
	<path d="M142.3,143.5l-0.9-0.2l-0.3,1.9l0.6,0.1c0.5,0.1,0.9,0.1,1.2,0c0.3-0.1,0.4-0.3,0.5-0.6c0.1-0.4,0-0.6-0.2-0.8
		C143.1,143.7,142.8,143.5,142.3,143.5z"/>
	<polygon points="55.5,150.1 57,149.7 55.6,147.5 	"/>
	<path d="M141.6,147.6l-0.9-0.1l-0.4,2.2l0.9,0.2c0.5,0.1,1,0.1,1.2-0.1c0.3-0.1,0.4-0.4,0.5-0.8c0.1-0.4,0-0.7-0.2-0.9
		C142.6,147.8,142.2,147.7,141.6,147.6z"/>
	<path d="M193.6,164.8l0.8-0.6c5.8-4.3,11.9-8.5,18.2-12.3c-32.9-18.1-69.6-27.7-106.3-27.7c-36.7,0-73.4,9.6-106.3,27.7
		c6.3,3.8,12.4,7.9,18.2,12.3l0.8,0.6l-0.1,1c-1.1,7.5-1.8,15.1-2.3,22.6c27.8-15.2,58.8-23.2,89.8-23.2c31,0,62,8,89.8,23.2
		c-0.5-7.5-1.3-15.1-2.3-22.6L193.6,164.8z M36.7,161.6l-4.1-5.9l0.8,7.1l-2.4,0.9l-5.4-7.5l-0.8,0.3l-0.8-2.1l4.2-1.6l0.8,2.1
		l-0.9,0.3l2.6,3.9l-0.9-7l2.3-0.9l4,6l-0.6-4.8l-0.9,0.3l-0.8-2.1l4.2-1.6l0.8,2.1l-0.8,0.3l0.9,9.1L36.7,161.6z M43.3,159.2
		l-0.7-2.2l1-0.3l-1.9-6.3l-1,0.3l-0.7-2.2l7.8-2.4l1.1,3.4l-2.4,0.7l-0.4-1.2l-1.8,0.5l0.6,1.9l2.4-0.7l0.7,2.4l-2.4,0.7l0.6,2
		l1.8-0.5l-0.4-1.2l2.3-0.7l1,3.4L43.3,159.2z M58.2,155l-0.6-2.2l0.9-0.2l-0.5-0.8l-2.7,0.7l-0.1,1l0.9-0.2l0.6,2.2l-4.7,1.2
		l-0.6-2.2l1-0.3l0.9-7l-1,0.3l-0.6-2.2l4.1-1l5.4,7.8l1.1-0.3l0.6,2.2L58.2,155z M70.2,143.3l-1,9.2l-2.9,0.6l-4.4-8.2l-0.9,0.2
		l-0.4-2.2L65,142l0.4,2.2l-0.9,0.2l2.4,4.8l0.4-5.4l-0.8,0.2l-0.4-2.3l4.4-0.9l0.4,2.2L70.2,143.3z M73.9,151.7l-0.3-2.3l1.1-0.2
		l-1-6.5l-1.1,0.2l-0.3-2.3L77,140l0.3,2.3l-1,0.2l1,6.5l1-0.2l0.3,2.3L73.9,151.7z M90.6,149.7l-2.4,0.2l-4.8-5.8l0.4,3.9l1-0.1
		l0.2,2.3l-4.8,0.5l-0.2-2.3l1.1-0.1l-0.7-6.5l-1.1,0.1l-0.2-2.3l3.5-0.4l4.7,5.8l-0.4-3.9l-1.1,0.1l-0.2-2.3l4.8-0.5l0.2,2.3
		l-1,0.1L90.6,149.7z M101.9,149.2l0-1.2c-0.4,0.5-0.9,0.9-1.4,1.1c-0.5,0.3-1.2,0.4-1.9,0.4c-0.8,0-1.6-0.1-2.3-0.4
		c-0.7-0.3-1.3-0.7-1.9-1.2c-0.5-0.5-1-1.1-1.3-1.8c-0.3-0.7-0.5-1.4-0.5-2.2c0-0.8,0.1-1.5,0.4-2.2c0.3-0.7,0.7-1.3,1.2-1.9
		c0.5-0.6,1.1-1,1.8-1.3c0.7-0.3,1.4-0.5,2.2-0.5c0.7,0,1.3,0,1.8,0.2c0.5,0.2,1,0.5,1.4,0.9l0-1l2-0.1l0.1,3.7l-2.8,0.1
		c-0.3-0.4-0.6-0.7-1-0.9c-0.4-0.2-0.8-0.3-1.3-0.3c-0.9,0-1.6,0.4-2.1,1c-0.6,0.6-0.8,1.4-0.8,2.2c0,0.9,0.4,1.6,1,2.3
		c0.6,0.6,1.3,0.9,2.1,0.9c0.5,0,1-0.2,1.4-0.5c0.4-0.3,0.8-0.7,1-1.2l-3.2,0.1l-0.1-2.2l6.2-0.2l0.2,6.2L101.9,149.2z M125.8,141
		l-0.9,0l-2.9,8.7l-2.5-0.1l-1.3-7l-2.1,6.8l-2.5-0.1l-1.9-9l-0.9-0.1l0.1-2.3l4.5,0.3l-0.1,2.3l-0.9-0.1l0.8,4.6l2-6.7l2.4,0.1
		l1.2,7.1l1.4-4.7l-0.9-0.1l0.1-2.3l4.5,0.3L125.8,141z M135.5,143.6l-2.4-0.3l0.2-1.3l-1.9-0.2l-0.2,2l2.5,0.3l-0.3,2.5l-2.5-0.3
		l-0.3,2.1l1.9,0.2l0.2-1.3l2.4,0.3l-0.4,3.6l-8.1-1l0.3-2.3l1.1,0.1l0.8-6.5l-1.1-0.1l0.3-2.3l8.1,1L135.5,143.6z M145.9,144.4
		c-0.1,0.6-0.3,1-0.6,1.4c-0.3,0.3-0.7,0.6-1.2,0.7c0.6,0.3,1,0.7,1.3,1.2c0.2,0.5,0.3,1,0.2,1.7c-0.1,0.5-0.3,1-0.5,1.4
		c-0.3,0.4-0.6,0.7-1,1c-0.4,0.2-0.8,0.4-1.3,0.4c-0.5,0-1.2,0-2.1-0.2l-4.4-0.8l0.4-2.3l1.1,0.2l1.1-6.5l-1.1-0.2l0.4-2.3l4.8,0.8
		c1.1,0.2,1.9,0.6,2.4,1.1C145.9,142.9,146.1,143.6,145.9,144.4z M154.5,154.9l-8-1.8l0.5-2.2l1,0.2l1.4-6.4l-1.1-0.2l0.5-2.2
		l4.7,1.1l-0.5,2.2l-1-0.2l-1.4,6.4l1.8,0.4l0.3-1.3l2.4,0.5L154.5,154.9z M165.8,150.1l-2.4-0.7l0.3-1.2l-1.8-0.5l-0.5,1.9l2.4,0.7
		l-0.7,2.4l-2.4-0.7l-0.6,2l1.8,0.5l0.3-1.2l2.4,0.7l-1,3.4l-7.9-2.2l0.6-2.2l1,0.3l1.8-6.3l-1-0.3l0.6-2.2l7.9,2.2L165.8,150.1z
		 M173.7,151.3l-2.1,6.2l1,0.3l-0.7,2.2l-4.6-1.5l0.7-2.2l1,0.3l2.1-6.2l-1-0.3l-0.5,1.4l-1.9-0.6l1.2-3.6l8.4,2.8l-1.2,3.6
		l-1.9-0.6l0.5-1.4L173.7,151.3z M184.9,156.5l-2.2-0.8c0.1-0.4,0.1-0.7,0-0.9c-0.1-0.3-0.3-0.4-0.6-0.5c-0.3-0.1-0.5-0.1-0.7,0
		c-0.2,0.1-0.4,0.3-0.5,0.5c-0.1,0.2-0.1,0.4-0.1,0.5c0,0.2,0.1,0.3,0.2,0.5c0.2,0.2,0.5,0.4,0.9,0.8c0.4,0.3,0.7,0.6,0.9,0.8
		c0.5,0.6,0.8,1.2,1,1.8c0.1,0.6,0.1,1.2-0.1,1.8c-0.4,0.9-1,1.6-1.9,2c-0.9,0.4-1.8,0.5-2.7,0.1c-0.3-0.1-0.6-0.3-0.8-0.5
		c-0.3-0.2-0.5-0.5-0.7-0.8l-0.1,0.3l-2-0.8l1.3-3.4l2.4,0.9c-0.1,0.5-0.2,0.9-0.1,1.2c0.1,0.3,0.3,0.5,0.6,0.6
		c0.3,0.1,0.6,0.1,0.8,0c0.3-0.1,0.5-0.3,0.6-0.6c0.1-0.2,0.1-0.3,0.1-0.5c0-0.2-0.1-0.3-0.2-0.5c-0.2-0.2-0.4-0.4-0.8-0.7
		c-0.3-0.3-0.6-0.5-0.7-0.6c-0.6-0.6-1-1.2-1.2-1.9c-0.2-0.6-0.2-1.3,0.1-1.9c0.4-0.9,1-1.5,1.8-1.9c0.9-0.4,1.7-0.4,2.7,0
		c0.3,0.1,0.6,0.3,0.8,0.5c0.2,0.2,0.4,0.4,0.6,0.7l0.1-0.3l1.9,0.7L184.9,156.5z"/>
</g>
</svg>
