<?xml version="1.0" encoding="utf-8"?>
<!-- Generator: Adobe Illustrator 19.1.0, SVG Export Plug-In . SVG Version: 6.00 Build 0)  -->
<svg version="1.1" id="Layer_1" xmlns="http://www.w3.org/2000/svg" xmlns:xlink="http://www.w3.org/1999/xlink" x="0px" y="0px"
	 viewBox="0 0 38.5 38.3" style="enable-background:new 0 0 38.5 38.3;" xml:space="preserve">
<style type="text/css">
	.st0{clip-path:url(#SVGID_2_);}
	.st1{clip-path:url(#SVGID_4_);fill:#666666;}
</style>
<g>
	<g>
		<defs>
			<rect id="SVGID_1_" x="-6.3" y="-6.5" width="51.2" height="51.2"/>
		</defs>
		<clipPath id="SVGID_2_">
			<use xlink:href="#SVGID_1_"  style="overflow:visible;"/>
		</clipPath>
		<g class="st0">
			<defs>
				<rect id="SVGID_3_" x="-6.3" y="-6.5" width="51.2" height="51.2"/>
			</defs>
			<clipPath id="SVGID_4_">
				<use xlink:href="#SVGID_3_"  style="overflow:visible;"/>
			</clipPath>
			<path class="st1" d="M26,0H12.5C5.6,0,0,5.6,0,12.5v1.7C0,14.6,0.4,15,0.9,15h7.6c1.1,0,2.1-0.9,2.1-2.1V8.6
				c0-1.1,0.9-2.1,2.1-2.1h13.1c1.1,0,2.1,0.9,2.1,2.1v4.3c0,1.1,0.9,2.1,2.1,2.1h7.7c0.5,0,0.8-0.4,0.8-0.8v-1.7
				C38.5,5.6,32.9,0,26,0"/>
			<path class="st1" d="M10.4,33.3c1.4,0,2.5,1.1,2.5,2.5c0,1.4-1.1,2.5-2.5,2.5s-2.5-1.1-2.5-2.5C7.9,34.4,9.1,33.3,10.4,33.3"/>
			<path class="st1" d="M19.2,33.3c1.4,0,2.5,1.1,2.5,2.5c0,1.4-1.1,2.5-2.5,2.5c-1.4,0-2.5-1.1-2.5-2.5
				C16.7,34.4,17.8,33.3,19.2,33.3"/>
			<path class="st1" d="M28,33.3c1.4,0,2.5,1.1,2.5,2.5c0,1.4-1.1,2.5-2.5,2.5c-1.4,0-2.5-1.1-2.5-2.5C25.5,34.4,26.6,33.3,28,33.3"
				/>
			<path class="st1" d="M10.4,25.4c1.4,0,2.5,1.1,2.5,2.5c0,1.4-1.1,2.5-2.5,2.5s-2.5-1.1-2.5-2.5C7.9,26.5,9.1,25.4,10.4,25.4"/>
			<path class="st1" d="M19.2,25.4c1.4,0,2.5,1.1,2.5,2.5c0,1.4-1.1,2.5-2.5,2.5c-1.4,0-2.5-1.1-2.5-2.5
				C16.7,26.5,17.8,25.4,19.2,25.4"/>
			<path class="st1" d="M28,25.4c1.4,0,2.5,1.1,2.5,2.5c0,1.4-1.1,2.5-2.5,2.5c-1.4,0-2.5-1.1-2.5-2.5C25.5,26.5,26.6,25.4,28,25.4"
				/>
			<path class="st1" d="M10.4,17.3c1.4,0,2.5,1.1,2.5,2.5c0,1.4-1.1,2.5-2.5,2.5s-2.5-1.1-2.5-2.5C7.9,18.4,9.1,17.3,10.4,17.3"/>
			<path class="st1" d="M19.2,17.3c1.4,0,2.5,1.1,2.5,2.5c0,1.4-1.1,2.5-2.5,2.5c-1.4,0-2.5-1.1-2.5-2.5
				C16.7,18.4,17.8,17.3,19.2,17.3"/>
			<path class="st1" d="M28,17.3c1.4,0,2.5,1.1,2.5,2.5c0,1.4-1.1,2.5-2.5,2.5c-1.4,0-2.5-1.1-2.5-2.5C25.5,18.4,26.6,17.3,28,17.3"
				/>
		</g>
	</g>
</g>
</svg>
